<svg width="32" height="32" viewBox="0 0 32 32" fill="none" xmlns="http://www.w3.org/2000/svg">
  <!-- Trophy base -->
  <rect x="12" y="24" width="8" height="4" rx="1" fill="#2563eb"/>
  <!-- Trophy stem -->
  <rect x="14" y="20" width="4" height="4" fill="#2563eb"/>
  <!-- Trophy cup -->
  <path d="M8 8h16c1 0 2 1 2 2v6c0 3-3 6-8 6s-8-3-8-6V10c0-1 1-2 2-2z" fill="#2563eb"/>
  <!-- Trophy handles -->
  <path d="M6 12c-1 0-2-1-2-2s1-2 2-2v4zm20-4c1 0 2 1 2 2s-1 2-2 2V8z" fill="#10b981"/>
  <!-- Award star -->
  <circle cx="16" cy="14" r="3" fill="white"/>
  <path d="M16 12l1 2h2l-1.5 1.5L18 18l-2-1-2 1 .5-2.5L13 14h2l1-2z" fill="#2563eb"/>
</svg> 